<svg width="1580" height="809" viewBox="0 0 1580 809" fill="none" xmlns="http://www.w3.org/2000/svg">
<path d="M208.819 677.35V752.071L144.109 789.432L79.3994 752.071V677.35L144.109 639.989L208.819 677.35Z" stroke="#F79E62" stroke-width="23"/>
<path d="M442.753 541.294V618.127L377.609 656.375L312.466 618.127V541.294L377.609 503.046L442.753 541.294Z" stroke="#F79E62" stroke-width="23"/>
<path d="M519.753 677.369V752.052L454.609 789.45L389.466 752.052V677.369L454.609 639.971L519.753 677.369Z" stroke="#F79E62" stroke-width="23"/>
<path d="M287.619 541.332V618.089L221.609 656.413L155.601 618.09V541.331L221.609 503.008L287.619 541.332Z" stroke="#F79E62" stroke-width="23"/>
<path d="M1361.11 466.137C1317.12 466.137 1278.41 456.669 1245 437.734C1212.14 418.242 1186.52 390.953 1168.14 355.868C1150.32 320.782 1141.41 279.849 1141.41 233.068C1141.41 185.731 1150.32 144.797 1168.14 110.269C1186.52 75.1833 1212.14 48.173 1245 29.2379C1278.41 9.74598 1317.12 0 1361.11 0C1405.11 0 1443.54 9.74598 1476.39 29.2379C1509.25 48.173 1534.59 75.1833 1552.41 110.269C1570.79 144.797 1579.98 185.731 1579.98 233.068C1579.98 279.849 1570.79 320.782 1552.41 355.868C1534.59 390.953 1509.25 418.242 1476.39 437.734C1443.54 456.669 1405.11 466.137 1361.11 466.137ZM1361.11 379.258C1395.64 379.258 1422.1 366.449 1440.47 340.831C1459.41 315.213 1468.88 279.292 1468.88 233.068C1468.88 187.401 1459.41 151.759 1440.47 126.141C1422.1 99.966 1395.64 86.8785 1361.11 86.8785C1326.58 86.8785 1299.85 99.966 1280.92 126.141C1261.98 151.759 1252.51 187.401 1252.51 233.068C1252.51 279.292 1261.98 315.213 1280.92 340.831C1299.85 366.449 1326.58 379.258 1361.11 379.258Z" fill="black"/>
<path d="M470.46 456.112V10.0244H567.363L570.705 119.458L560.68 114.446C565.693 90.4984 574.325 70.1711 586.577 53.4637C599.386 36.1994 614.701 23.1119 632.522 14.2013C650.9 4.73375 670.949 0 692.669 0C730.539 0 761.169 10.8598 784.56 32.5794C807.95 53.7421 822.708 82.9801 828.834 120.293H814.633C819.645 94.1184 828.277 72.3987 840.53 55.1344C852.782 37.3132 868.097 23.6688 886.475 14.2013C905.41 4.73375 926.573 0 949.963 0C980.593 0 1007.05 6.68296 1029.32 20.0489C1051.6 32.8579 1068.59 51.793 1080.28 76.8541C1092.53 101.915 1098.66 132.824 1098.66 169.58V456.112H991.732V197.147C991.732 160.391 985.327 132.824 972.518 114.446C960.266 96.0675 941.331 86.8785 915.713 86.8785C898.449 86.8785 883.69 91.3338 871.438 100.244C859.186 109.155 849.719 122.243 843.036 139.507C836.91 156.214 833.847 176.542 833.847 200.489V456.112H734.438V200.489C734.438 163.733 728.868 135.608 717.73 116.116C706.592 96.6245 687.378 86.8785 660.09 86.8785C642.825 86.8785 628.067 91.3338 615.815 100.244C604.12 109.155 594.652 122.243 587.412 139.507C580.729 156.214 577.388 176.542 577.388 200.489V456.112H470.46Z" fill="black"/>
<path d="M0 581.418V10.0244H102.751L105.257 105.257L94.3968 100.244C105.535 67.3865 123.635 42.6039 148.696 25.8964C174.314 8.63215 204.109 0 238.081 0C280.406 0 315.491 10.5814 343.337 31.7441C371.74 52.9068 392.902 81.0309 406.825 116.116C420.748 151.202 427.71 190.186 427.71 233.068C427.71 275.951 420.47 314.935 405.99 350.02C392.067 385.106 370.904 413.23 342.502 434.393C314.656 455.555 279.571 466.137 237.245 466.137C214.969 466.137 194.084 462.238 174.592 454.441C155.657 446.645 139.228 435.506 125.306 421.027C111.94 406.547 102.472 389.561 96.9029 370.069L106.927 361.715V581.418H0ZM212.184 379.258C244.485 379.258 269.825 366.449 288.203 340.831C307.138 314.656 316.605 278.735 316.605 233.068C316.605 187.401 307.138 151.759 288.203 126.141C269.825 99.966 244.485 86.8785 212.184 86.8785C190.464 86.8785 171.808 92.4476 156.214 103.586C140.621 114.167 128.369 130.318 119.458 152.037C111.104 173.757 106.927 200.767 106.927 233.068C106.927 265.369 111.104 292.38 119.458 314.099C127.812 335.819 139.785 352.248 155.379 363.386C171.529 373.967 190.464 379.258 212.184 379.258Z" fill="black"/>
<path d="M1460.3 808.711C1435.87 808.711 1414.36 803.173 1395.79 792.096C1377.55 781.018 1363.37 765.217 1353.28 744.692C1343.18 724.167 1338.13 700.057 1338.13 672.364C1338.13 644.997 1343.18 621.214 1353.28 601.014C1363.37 580.489 1377.38 564.525 1395.3 553.122C1413.55 541.719 1434.89 536.018 1459.32 536.018C1482.78 536.018 1503.47 541.556 1521.39 552.633C1539.63 563.71 1553.8 579.512 1563.9 600.037C1574.33 620.562 1579.54 644.997 1579.54 673.342V688.492H1397.75C1399.38 710.646 1405.73 727.587 1416.81 739.316C1428.21 751.045 1443.03 756.909 1461.28 756.909C1475.29 756.909 1486.85 753.651 1495.98 747.135C1505.42 740.294 1511.94 731.497 1515.52 720.746L1574.66 725.144C1566.51 751.208 1552.66 771.733 1533.12 786.72C1513.57 801.381 1489.3 808.711 1460.3 808.711ZM1398.24 646.463H1516.99C1515.36 626.59 1509.33 611.929 1498.91 602.481C1488.48 592.707 1475.12 587.82 1458.83 587.82C1442.54 587.82 1429.02 592.869 1418.27 602.969C1407.85 612.743 1401.17 627.241 1398.24 646.463Z" fill="black"/>
<path d="M1154.2 802.848L1062.81 541.883H1124.88L1189.88 740.294L1254.87 541.883H1316.94L1225.55 802.848H1154.2Z" fill="black"/>
<path d="M939.69 802.848V541.883H997.356V802.848H939.69ZM839.995 802.848V755.933H1082.39V802.848H839.995ZM844.882 588.798V541.883H989.048V588.798H844.882ZM937.246 507.185V452.451H995.89V507.185H937.246Z" fill="black"/>
<path d="M578.851 802.849V455.873H636.517V598.084L631.141 594.663C635.051 580.98 640.752 569.903 648.246 561.432C656.065 552.635 665.35 546.282 676.102 542.373C686.853 538.137 698.908 536.02 712.265 536.02C730.184 536.02 745.171 540.092 757.226 548.237C769.606 556.382 778.728 567.948 784.593 582.935C790.783 597.596 793.878 614.863 793.878 634.737V802.849H736.212V647.932C736.212 625.777 732.465 609.813 724.971 600.039C717.478 590.265 706.564 585.378 692.229 585.378C675.613 585.378 662.092 590.917 651.667 601.994C641.567 613.071 636.517 629.361 636.517 650.864V802.849H578.851Z" fill="black"/>
</svg>
